<mxfile host="65bd71144e">
    <diagram id="F3RB1qcFpUZrBp71OoMB" name="Página-1">
        <mxGraphModel dx="612" dy="352" grid="1" gridSize="10" guides="1" tooltips="1" connect="1" arrows="1" fold="1" page="1" pageScale="1" pageWidth="1169" pageHeight="827" math="0" shadow="0">
            <root>
                <mxCell id="0"/>
                <mxCell id="1" parent="0"/>
                <mxCell id="27" value="" style="ellipse;whiteSpace=wrap;html=1;aspect=fixed;sketch=1;rounded=1;" parent="1" vertex="1">
                    <mxGeometry x="515" y="145" width="160" height="160" as="geometry"/>
                </mxCell>
                <mxCell id="3" value="" style="shape=cylinder3;whiteSpace=wrap;html=1;boundedLbl=1;backgroundOutline=1;size=15;sketch=1;rounded=1;" parent="1" vertex="1">
                    <mxGeometry x="340" y="50" width="60" height="80" as="geometry"/>
                </mxCell>
                <mxCell id="4" value="Firebase" style="text;html=1;strokeColor=none;fillColor=none;align=center;verticalAlign=middle;whiteSpace=wrap;rounded=1;sketch=1;" parent="1" vertex="1">
                    <mxGeometry x="340" y="80" width="60" height="30" as="geometry"/>
                </mxCell>
                <mxCell id="5" value="Jogo" style="html=1;sketch=1;rounded=1;" parent="1" vertex="1">
                    <mxGeometry x="80" y="200" width="110" height="50" as="geometry"/>
                </mxCell>
                <mxCell id="18" value="Dashboard&amp;nbsp;&lt;br&gt;Não Relacional" style="html=1;sketch=1;rounded=1;" parent="1" vertex="1">
                    <mxGeometry x="540" y="200" width="110" height="50" as="geometry"/>
                </mxCell>
                <mxCell id="22" value="" style="endArrow=classic;startArrow=none;html=1;sketch=1;rounded=1;curved=1;" parent="1" source="23" target="3" edge="1">
                    <mxGeometry width="50" height="50" relative="1" as="geometry">
                        <mxPoint x="350" y="140" as="sourcePoint"/>
                        <mxPoint x="400" y="90" as="targetPoint"/>
                    </mxGeometry>
                </mxCell>
                <mxCell id="23" value="Get/Post&#10;Json" style="text;align=center;fontStyle=1;verticalAlign=middle;spacingLeft=3;spacingRight=3;strokeColor=none;rotatable=0;points=[[0,0.5],[1,0.5]];portConstraint=eastwest;sketch=1;rounded=1;" parent="1" vertex="1">
                    <mxGeometry x="220" y="140" width="80" height="26" as="geometry"/>
                </mxCell>
                <mxCell id="24" value="" style="endArrow=none;startArrow=classic;html=1;sketch=1;rounded=1;curved=1;" parent="1" source="5" target="23" edge="1">
                    <mxGeometry width="50" height="50" relative="1" as="geometry">
                        <mxPoint x="178.51851851851848" y="200" as="sourcePoint"/>
                        <mxPoint x="340" y="107.23404255319144" as="targetPoint"/>
                    </mxGeometry>
                </mxCell>
                <mxCell id="28" value="Netfly" style="text;html=1;strokeColor=none;fillColor=none;align=center;verticalAlign=middle;whiteSpace=wrap;rounded=1;sketch=1;" parent="1" vertex="1">
                    <mxGeometry x="565" y="150" width="60" height="30" as="geometry"/>
                </mxCell>
                <mxCell id="29" value="Real time DB" style="text;align=center;fontStyle=1;verticalAlign=middle;spacingLeft=3;spacingRight=3;strokeColor=none;rotatable=0;points=[[0,0.5],[1,0.5]];portConstraint=eastwest;fontSize=8;" vertex="1" parent="1">
                    <mxGeometry x="340" y="100" width="60" height="10" as="geometry"/>
                </mxCell>
                <mxCell id="30" value="Construct 3" style="text;align=center;fontStyle=1;verticalAlign=middle;spacingLeft=3;spacingRight=3;strokeColor=none;rotatable=0;points=[[0,0.5],[1,0.5]];portConstraint=eastwest;fontSize=8;" vertex="1" parent="1">
                    <mxGeometry x="105" y="230" width="60" height="10" as="geometry"/>
                </mxCell>
                <mxCell id="31" value="" style="endArrow=classic;html=1;fontSize=8;startArrow=none;" edge="1" parent="1" source="20" target="3">
                    <mxGeometry width="50" height="50" relative="1" as="geometry">
                        <mxPoint x="330" y="240" as="sourcePoint"/>
                        <mxPoint x="380" y="190" as="targetPoint"/>
                    </mxGeometry>
                </mxCell>
                <mxCell id="20" value="Get&#10;Json" style="text;align=center;fontStyle=1;verticalAlign=middle;spacingLeft=3;spacingRight=3;strokeColor=none;rotatable=0;points=[[0,0.5],[1,0.5]];portConstraint=eastwest;sketch=1;rounded=1;" parent="1" vertex="1">
                    <mxGeometry x="435" y="140" width="80" height="26" as="geometry"/>
                </mxCell>
                <mxCell id="32" value="" style="endArrow=none;html=1;fontSize=8;" edge="1" parent="1" source="18" target="20">
                    <mxGeometry width="50" height="50" relative="1" as="geometry">
                        <mxPoint x="553.3333333333333" y="200" as="sourcePoint"/>
                        <mxPoint x="399.9999999999999" y="108" as="targetPoint"/>
                    </mxGeometry>
                </mxCell>
            </root>
        </mxGraphModel>
    </diagram>
</mxfile>